<?xml version="1.0" encoding="UTF-8"?>
<svg version="1.1" xmlns="http://www.w3.org/2000/svg" width="40" height="30">
<path d="M0 0 C1.07701172 0.00451172 2.15402344 0.00902344 3.26367188 0.01367188 C5.86334555 0.02522598 8.46288849 0.04150674 11.0625 0.0625 C13.18407386 3.86120734 13.30913053 6.70536068 13.0625 11.0625 C11.20284925 12.92215075 8.11360881 12.30337549 5.62109375 12.37890625 C3.66333008 12.44174805 3.66333008 12.44174805 1.66601562 12.50585938 C0.2773467 12.54567608 -1.11132522 12.58538825 -2.5 12.625 C-3.89259183 12.66817989 -5.28517028 12.711794 -6.67773438 12.75585938 C-10.09754801 12.86235876 -13.51743763 12.96436923 -16.9375 13.0625 C-16.77523926 13.82062988 -16.61297852 14.57875977 -16.44580078 15.35986328 C-15.83644181 18.59982671 -15.80540958 21.64045617 -15.8125 24.9375 C-15.80992188 26.11054688 -15.80734375 27.28359375 -15.8046875 28.4921875 C-15.99449467 35.02378722 -16.50284104 41.54261554 -16.9375 48.0625 C40.1525 48.0625 97.2425 48.0625 156.0625 48.0625 C156.0625 52.0225 156.0625 55.9825 156.0625 60.0625 C142.39593869 60.23811774 128.72927161 60.40408707 115.0625 60.5625 C113.52616158 60.58031588 113.52616158 60.58031588 111.95878601 60.59849167 C80.7427802 60.95779644 49.5305962 61.15566611 18.3125 61.125 C17.4346283 61.12414398 16.55675659 61.12328796 15.65228271 61.12240601 C5.12233144 61.1113459 -5.40758297 61.09180367 -15.9375 61.0625 C-15.99535647 65.02077235 -16.03104717 68.9789367 -16.0625 72.9375 C-16.07925781 74.06542969 -16.09601563 75.19335938 -16.11328125 76.35546875 C-16.12294922 77.97001953 -16.12294922 77.97001953 -16.1328125 79.6171875 C-16.14852295 81.10968018 -16.14852295 81.10968018 -16.16455078 82.63232422 C-16.18129401 85.24421417 -16.18129401 85.24421417 -13.9375 87.0625 C-11.36688689 87.71017793 -11.36688689 87.71017793 -8.9375 88.0625 C-9.10499756 87.34231689 -9.27249512 86.62213379 -9.44506836 85.88012695 C-9.92813528 83.11608366 -9.97067696 80.77448266 -9.81640625 77.98046875 C-9.76806641 77.04912109 -9.71972656 76.11777344 -9.66992188 75.15820312 C-9.61384766 74.19849609 -9.55777344 73.23878906 -9.5 72.25 C-9.44779297 71.27095703 -9.39558594 70.29191406 -9.34179688 69.28320312 C-9.21262962 66.87599515 -9.07581607 64.46919962 -8.9375 62.0625 C-3.3275 62.0625 2.2825 62.0625 8.0625 62.0625 C9.02651557 65.91856228 9.03262887 67.39202921 8.25 71.125 C8.07855469 71.98222656 7.90710938 72.83945312 7.73046875 73.72265625 C7.0625 76.0625 7.0625 76.0625 5.0625 79.0625 C4.0725 78.4025 3.0825 77.7425 2.0625 77.0625 C0.7425 77.0625 -0.5775 77.0625 -1.9375 77.0625 C-2.2675 78.0525 -2.5975 79.0425 -2.9375 80.0625 C1.0225 80.0625 4.9825 80.0625 9.0625 80.0625 C9.0625 81.7125 9.0625 83.3625 9.0625 85.0625 C6.60453147 85.25686491 4.14640706 85.4432742 1.6875 85.625 C0.63949219 85.70911133 0.63949219 85.70911133 -0.4296875 85.79492188 C-5.7109375 86.17578125 -5.7109375 86.17578125 -7.9375 85.0625 C-7.9375 86.0525 -7.9375 87.0425 -7.9375 88.0625 C-7.35774414 87.89500244 -6.77798828 87.72750488 -6.18066406 87.55493164 C-2.68318625 86.78714619 0.77264851 87.22794428 4.3125 87.5 C5.05757812 87.55220703 5.80265625 87.60441406 6.5703125 87.65820312 C8.40144861 87.7873217 10.23203813 87.92415114 12.0625 88.0625 C12.5575 93.5075 12.5575 93.5075 13.0625 99.0625 C0.36954482 104.13968207 -14.27204005 100.44209611 -27.9375 100.0625 C-27.9375 67.3925 -27.9375 34.7225 -27.9375 1.0625 C-18.53436235 0.43562416 -9.38465078 -0.07716664 0 0 Z M-2.9375 68.0625 C-2.9375 69.0525 -2.9375 70.0425 -2.9375 71.0625 C-0.2975 71.0625 2.3425 71.0625 5.0625 71.0625 C5.3925 70.0725 5.7225 69.0825 6.0625 68.0625 C3.0925 68.0625 0.1225 68.0625 -2.9375 68.0625 Z " fill="#2B60D5" transform="translate(122.9375,195.9375)"/>
<path d="M0 0 C0.66818231 -0.00085442 1.33636462 -0.00170885 2.02479488 -0.00258917 C4.26808799 -0.00423883 6.51130665 0.00126901 8.7545929 0.00672913 C10.36092629 0.00701113 11.96725982 0.006853 13.57359314 0.00628662 C17.93898999 0.00599918 22.30435949 0.01188734 26.66974998 0.01886058 C31.23015947 0.02510295 35.79056956 0.02569862 40.35098267 0.02688599 C48.98884325 0.02999669 57.6266912 0.03820657 66.26454622 0.04823548 C76.09755878 0.0594047 85.93057194 0.06490911 95.76358926 0.06993091 C115.99277526 0.08038939 136.22194988 0.0979838 156.4511261 0.12025452 C157.4411261 4.08025452 157.4411261 4.08025452 158.4511261 8.12025452 C157.44589905 8.11803391 156.440672 8.11581329 155.40498352 8.11352539 C112.36235325 8.0216422 69.31981098 7.93127548 26.28022766 8.52597427 C23.95244353 8.55773654 21.62464175 8.58769315 19.29682922 8.61729431 C15.67080945 8.66402081 12.04490981 8.71615559 8.41903687 8.77313232 C6.48604553 8.80283161 4.55299705 8.82873679 2.61994934 8.85450745 C0.90346191 8.88441772 0.90346191 8.88441772 -0.84770203 8.91493225 C-1.83516418 8.93047653 -2.82262634 8.94602081 -3.8400116 8.96203613 C-6.49622814 9.1171796 -8.95734558 9.53130938 -11.5488739 10.12025452 C-11.57786207 14.0577391 -11.59566854 17.99519631 -11.6113739 21.93275452 C-11.61975281 23.0523053 -11.62813171 24.17185608 -11.63676453 25.32533264 C-11.63998718 26.39847717 -11.64320984 27.4716217 -11.64653015 28.57728577 C-11.65176697 29.56704407 -11.65700378 30.55680237 -11.66239929 31.57655334 C-11.65957349 34.24418186 -11.65957349 34.24418186 -10.5488739 37.12025452 C-9.4207428 37.15783875 -9.4207428 37.15783875 -8.26982117 37.19618225 C-4.88348194 37.31175965 -1.49744777 37.43465796 1.8886261 37.55775452 C3.66463196 37.61672913 3.66463196 37.61672913 5.47651672 37.67689514 C7.16357727 37.73973694 7.16357727 37.73973694 8.88471985 37.80384827 C9.92684631 37.84050598 10.96897278 37.8771637 12.04267883 37.91493225 C14.4511261 38.12025452 14.4511261 38.12025452 15.4511261 39.12025452 C15.4511261 42.09025452 15.4511261 45.06025452 15.4511261 48.12025452 C3.2411261 48.12025452 -8.9688739 48.12025452 -21.5488739 48.12025452 C-21.68676754 27.29831487 -21.68676754 27.29831487 -21.2988739 17.55775452 C-21.28477478 16.8630304 -21.27067566 16.16830627 -21.25614929 15.45252991 C-21.09264764 12.17719629 -20.72232365 10.35164546 -18.7363739 7.70228577 C-15.77374003 5.55966662 -13.14254929 5.39669109 -9.5488739 5.12025452 C-9.5488739 3.80025452 -9.5488739 2.48025452 -9.5488739 1.12025452 C-6.15250413 -0.01186874 -3.58186774 -0.00275317 0 0 Z " fill="#2762E6" transform="translate(118.54887390136719,246.87974548339844)"/>
<path d="M0 0 C0.72126849 -0.0034177 1.44253698 -0.0068354 2.18566209 -0.01035666 C4.60898298 -0.01695942 7.03120272 0.0050786 9.454422 0.0269165 C11.18883233 0.02804447 12.92324458 0.02741211 14.65765381 0.02514648 C19.37236832 0.02399642 24.08667773 0.04755289 28.8012979 0.07544231 C33.72604186 0.10040738 38.65079457 0.1027941 43.57559204 0.10754395 C52.90414772 0.11998814 62.23251642 0.15282927 71.56098968 0.1929419 C82.17993602 0.23761473 92.79889119 0.25963535 103.41790807 0.27972364 C125.26457511 0.32156064 147.1110737 0.39194072 168.95759583 0.48101807 C168.95759583 1.14101807 168.95759583 1.80101807 168.95759583 2.48101807 C167.95236877 2.47879745 166.94714172 2.47657684 165.91145325 2.47428894 C122.86882297 2.38240575 79.82628071 2.29203903 36.78669739 2.88673782 C34.45891326 2.91850009 32.13111148 2.9484567 29.80329895 2.97805786 C26.17727918 3.02478436 22.55137953 3.07691914 18.92550659 3.13389587 C16.99251525 3.16359516 15.05946677 3.18950034 13.12641907 3.215271 C11.40993164 3.24518127 11.40993164 3.24518127 9.6587677 3.2756958 C8.67130554 3.29124008 7.68384338 3.30678436 6.66645813 3.32279968 C4.01024159 3.47794315 1.54912414 3.89207293 -1.04240417 4.48101807 C-1.07139234 8.41850265 -1.08919881 12.35595986 -1.10490417 16.29351807 C-1.11328308 17.41306885 -1.12166199 18.53261963 -1.1302948 19.68609619 C-1.13351746 20.75924072 -1.13674011 21.83238525 -1.14006042 22.93804932 C-1.14529724 23.92780762 -1.15053406 24.91756592 -1.15592957 25.93731689 C-1.15310376 28.60494541 -1.15310376 28.60494541 -0.04240417 31.48101807 C0.70968323 31.50607422 1.46177063 31.53113037 2.23664856 31.5569458 C5.62298778 31.6725232 9.00902196 31.79542151 12.39509583 31.91851807 C13.57909973 31.95783447 14.76310364 31.99715088 15.98298645 32.03765869 C17.10769348 32.07955322 18.23240051 32.12144775 19.39118958 32.16461182 C20.43331604 32.20126953 21.4754425 32.23792725 22.54914856 32.2756958 C24.95759583 32.48101807 24.95759583 32.48101807 25.95759583 33.48101807 C25.95759583 36.45101807 25.95759583 39.42101807 25.95759583 42.48101807 C13.74759583 42.48101807 1.53759583 42.48101807 -11.04240417 42.48101807 C-11.18004717 21.69692557 -11.18004717 21.69692557 -10.72990417 11.91851807 C-10.70742615 11.22379395 -10.68494812 10.52906982 -10.66178894 9.81329346 C-10.22772102 1.90656413 -7.77432523 -0.02213331 0 0 Z " fill="#2763E5" transform="translate(108.04240417480469,252.51898193359375)"/>
<path d="M0 0 C0.69676718 -0.00085442 1.39353435 -0.00170885 2.11141568 -0.00258917 C4.45144441 -0.00423926 6.79140181 0.00126972 9.13142395 0.00672913 C10.80672199 0.00701113 12.48202015 0.00685301 14.15731812 0.00628662 C18.71072504 0.00599914 23.26410574 0.01188789 27.81750655 0.01886058 C32.57410662 0.02510235 37.33070726 0.02569857 42.08731079 0.02688599 C51.09703878 0.02999687 60.10675466 0.03820699 69.11647731 0.04823548 C79.37269834 0.05940415 89.62891995 0.06490897 99.88514555 0.06993091 C120.98523013 0.08038979 142.08530382 0.09798455 163.18537903 0.12025452 C163.18537903 0.78025452 163.18537903 1.44025452 163.18537903 2.12025452 C162.18015198 2.11803391 161.17492493 2.11581329 160.13923645 2.11352539 C117.09660618 2.0216422 74.05406391 1.93127548 31.01448059 2.52597427 C28.68669646 2.55773654 26.35889468 2.58769315 24.03108215 2.61729431 C20.40506238 2.66402081 16.77916274 2.71615559 13.15328979 2.77313232 C11.22029846 2.80283161 9.28724998 2.82873679 7.35420227 2.85450745 C5.63771484 2.88441772 5.63771484 2.88441772 3.8865509 2.91493225 C2.89908875 2.93047653 1.91162659 2.94602081 0.89424133 2.96203613 C-2.21954749 3.08111422 -2.21954749 3.08111422 -6.81462097 4.12025452 C-6.81462097 13.03025452 -6.81462097 21.94025452 -6.81462097 31.12025452 C-7.80462097 31.12025452 -8.79462097 31.12025452 -9.81462097 31.12025452 C-9.81462097 21.22025452 -9.81462097 11.32025452 -9.81462097 1.12025452 C-6.34489496 -0.03632082 -3.66202259 -0.00269862 0 0 Z " fill="#2A5BCE" transform="translate(113.81462097167969,252.87974548339844)"/>
<path d="M0 0 C3.13826903 1.52158498 4.31648648 4.0691916 6.0625 7 C7.7125 6.34 9.3625 5.68 11.0625 5 C11.0625 3.68 11.0625 2.36 11.0625 1 C13.0425 1 15.0225 1 17.0625 1 C17.83831772 5.94583795 18.20047258 10.80487417 18.3125 15.8125 C18.33828125 16.91207031 18.3640625 18.01164062 18.390625 19.14453125 C18.0625 22 18.0625 22 16.546875 23.88671875 C16.05703125 24.25410156 15.5671875 24.62148437 15.0625 25 C11.57906912 23.74209441 8.98849768 22.24326489 6.0625 20 C5.0725 19.67 4.0825 19.34 3.0625 19 C3.0625 20.65 3.0625 22.3 3.0625 24 C-0.22726808 25.09658936 -1.65053767 24.79953138 -4.9375 24 C-5.02431476 20.37515001 -5.07782721 16.75056557 -5.125 13.125 C-5.15013672 12.09246094 -5.17527344 11.05992187 -5.20117188 9.99609375 C-5.21083984 9.00996094 -5.22050781 8.02382812 -5.23046875 7.0078125 C-5.25403442 5.64100342 -5.25403442 5.64100342 -5.27807617 4.24658203 C-5.16568604 3.50520996 -5.0532959 2.76383789 -4.9375 2 C-1.9375 0 -1.9375 0 0 0 Z M9.0625 6 C9.3925 6.99 9.7225 7.98 10.0625 9 C10.3925 8.01 10.7225 7.02 11.0625 6 C10.4025 6 9.7425 6 9.0625 6 Z M9.0625 10 C10.0625 12 10.0625 12 10.0625 12 Z " fill="#040404" transform="translate(235.9375,214)"/>
<path d="M0 0 C0.804375 0.495 1.60875 0.99 2.4375 1.5 C2.4375 2.16 2.4375 2.82 2.4375 3.5 C3.0975 4.16 3.7575 4.82 4.4375 5.5 C4.5625 8.125 4.5625 8.125 4.4375 10.5 C5.0975 10.83 5.7575 11.16 6.4375 11.5 C5.7775 11.5 5.1175 11.5 4.4375 11.5 C4.169375 12.428125 3.90125 13.35625 3.625 14.3125 C2.52772755 17.25781025 1.90392831 18.65017877 -0.5625 20.5 C-1.2225 20.5 -1.8825 20.5 -2.5625 20.5 C-2.8925 21.16 -3.2225 21.82 -3.5625 22.5 C-12.13392857 22.64285714 -12.13392857 22.64285714 -15.5625 21.5 C-15.5625 20.84 -15.5625 20.18 -15.5625 19.5 C-16.2225 19.5 -16.8825 19.5 -17.5625 19.5 C-19.2768618 17.54072937 -20.94655168 15.54119788 -22.5625 13.5 C-21.9025 13.5 -21.2425 13.5 -20.5625 13.5 C-20.5625 12.18 -20.5625 10.86 -20.5625 9.5 C-21.2225 9.17 -21.8825 8.84 -22.5625 8.5 C-22.2325 7.84 -21.9025 7.18 -21.5625 6.5 C-20.9025 6.5 -20.2425 6.5 -19.5625 6.5 C-19.2325 4.85 -18.9025 3.2 -18.5625 1.5 C-17.9025 1.5 -17.2425 1.5 -16.5625 1.5 C-16.2325 0.84 -15.9025 0.18 -15.5625 -0.5 C-10.16995798 -2.29751401 -5.23742109 -2.20522993 0 0 Z M-11.3125 4.5625 C-13.90989791 6.34913292 -13.90989791 6.34913292 -13.875 9.625 C-13.771875 10.57375 -13.66875 11.5225 -13.5625 12.5 C-13.5625 12.83 -13.5625 13.16 -13.5625 13.5 C-11.83933364 15.76732415 -10.88901151 16.4346977 -8.0625 17 C-5.33242498 16.74565572 -5.33242498 16.74565572 -3.8125 14.125 C-3.4 13.25875 -2.9875 12.3925 -2.5625 11.5 C-2.2325 10.84 -1.9025 10.18 -1.5625 9.5 C-2.74629768 6.70961975 -3.48852572 4.96027469 -6.3125 3.75 C-8.69889601 3.30975769 -8.69889601 3.30975769 -11.3125 4.5625 Z " fill="#040405" transform="translate(209.5625,216.5)"/>
<path d="M0 0 C57.09 0 114.18 0 173 0 C173 3.96 173 7.92 173 12 C86.09699994 13.09919353 86.09699994 13.09919353 43.64816284 13.17724609 C40.46675518 13.18312943 37.28541464 13.19358796 34.10403442 13.20800781 C30.39431634 13.22438774 26.6847188 13.23092855 22.97496605 13.22919655 C20.98560049 13.23043397 18.99624788 13.2411406 17.00691223 13.25212097 C15.83915756 13.24908463 14.67140289 13.24604828 13.46826172 13.24291992 C11.94590408 13.24505745 11.94590408 13.24505745 10.39279175 13.24723816 C8 13 8 13 6 11 C16.81213008 10.78864829 27.62459088 10.60391055 38.4375 10.4375 C39.26398544 10.42476673 40.09047089 10.41203346 40.94200134 10.39891434 C71.05154151 9.94321458 101.1401445 10.0510182 131.25 10.4375 C132.24918835 10.45031384 133.24837669 10.46312767 134.27784348 10.4763298 C146.5188074 10.6347747 158.75949868 10.80921035 171 11 C171 8.03 171 5.06 171 2 C86.355 1.505 86.355 1.505 0 1 C0 0.67 0 0.34 0 0 Z " fill="#3A589C" transform="translate(106,244)"/>
<path d="M0 0 C5.61 0 11.22 0 17 0 C17.96401557 3.85606228 17.97012887 5.32952921 17.1875 9.0625 C17.01605469 9.91972656 16.84460938 10.77695312 16.66796875 11.66015625 C16 14 16 14 14 17 C13.01 16.34 12.02 15.68 11 15 C9.68 15 8.36 15 7 15 C6.67 15.99 6.34 16.98 6 18 C9.96 18 13.92 18 18 18 C18 19.65 18 21.3 18 23 C12.06 23.33 6.12 23.66 0 24 C-1.01044795 20.96865616 -1.05032949 19.25604057 -0.87890625 16.11328125 C-0.83056641 15.17548828 -0.78222656 14.23769531 -0.73242188 13.27148438 C-0.67634766 12.29501953 -0.62027344 11.31855469 -0.5625 10.3125 C-0.51029297 9.32443359 -0.45808594 8.33636719 -0.40429688 7.31835938 C-0.27464936 4.87862889 -0.13799193 2.43927275 0 0 Z M6 6 C6 6.99 6 7.98 6 9 C8.64 9 11.28 9 14 9 C14.33 8.01 14.66 7.02 15 6 C12.03 6 9.06 6 6 6 Z " fill="#050408" transform="translate(114,258)"/>
<path d="M0 0 C2.22855574 -0.0814222 4.45797655 -0.13938079 6.6875 -0.1875 C8.54955078 -0.23970703 8.54955078 -0.23970703 10.44921875 -0.29296875 C14.21666932 0.01787701 16.02794917 0.7227143 19 3 C20.61028119 6.22056238 20.59198765 9.5169099 20 13 C18 15.5 18 15.5 15 17 C12.23847356 17.30626911 9.79465924 17.18946842 7 17 C7 18.98 7 20.96 7 23 C4.21176345 24.0326802 3.1322726 24.04509293 0.25 23.0625 C-0.86375 22.5365625 -0.86375 22.5365625 -2 22 C-1.34 21.67 -0.68 21.34 0 21 C0 20.01 0 19.02 0 18 C-0.66 17.67 -1.32 17.34 -2 17 C-1.34 17 -0.68 17 0 17 C-0.08378906 15.94039062 -0.16757813 14.88078125 -0.25390625 13.7890625 C-0.35706832 12.40106375 -0.45991663 11.01304165 -0.5625 9.625 C-0.61857422 8.92632812 -0.67464844 8.22765625 -0.73242188 7.5078125 C-1.11328125 2.2265625 -1.11328125 2.2265625 0 0 Z M7 6 C7 7.98 7 9.96 7 12 C7.33 11.34 7.66 10.68 8 10 C11.0625 9.375 11.0625 9.375 14 9 C13.67 8.01 13.34 7.02 13 6 C11.02 6 9.04 6 7 6 Z " fill="#040304" transform="translate(140,215)"/>
<path d="M0 0 C3.54612473 1.74693303 4.80141286 3.2254321 6.35546875 6.8515625 C7.09607025 12.03577303 7.09607025 12.03577303 5.85546875 14.3515625 C1.66422199 17.90777187 -1.91221592 17.61761243 -7.14453125 17.3515625 C-6.95890625 17.9703125 -6.77328125 18.5890625 -6.58203125 19.2265625 C-6.14453125 21.3515625 -6.14453125 21.3515625 -7.14453125 23.3515625 C-9.45453125 23.3515625 -11.76453125 23.3515625 -14.14453125 23.3515625 C-14.80453125 21.7015625 -15.46453125 20.0515625 -16.14453125 18.3515625 C-15.81453125 18.0215625 -15.48453125 17.6915625 -15.14453125 17.3515625 C-14.90751886 14.49278341 -14.72233943 11.65272953 -14.58203125 8.7890625 C-14.53884766 7.98275391 -14.49566406 7.17644531 -14.45117188 6.34570312 C-14.34477863 4.34787445 -14.24412237 2.3497418 -14.14453125 0.3515625 C-9.94475956 -1.74832335 -4.41857561 -1.33603561 0 0 Z M-6.14453125 6.3515625 C-6.47453125 8.0015625 -6.80453125 9.6515625 -7.14453125 11.3515625 C-4.74733693 12.03114853 -4.74733693 12.03114853 -2.14453125 12.3515625 C-1.48453125 11.6915625 -0.82453125 11.0315625 -0.14453125 10.3515625 C-0.46304895 8.24335453 -0.46304895 8.24335453 -1.14453125 6.3515625 C-2.79453125 6.3515625 -4.44453125 6.3515625 -6.14453125 6.3515625 Z " fill="#040304" transform="translate(179.14453125,214.6484375)"/>
<path d="M0 0 C0.59732819 2.76264289 1 5.16032769 1 8 C1.43837713 10.44238687 1.90125657 12.72845558 2.75 15.0625 C3 17 3 17 1.875 19.125 C-0.42109627 21.42109627 -1.83225874 22.22566325 -5 23 C-9.18925015 22.92489392 -13.52437003 22.50245358 -17 20 C-17.33 19.01 -17.66 18.02 -18 17 C-17.34 16.67 -16.68 16.34 -16 16 C-15.27840576 14.35636866 -14.60648579 12.68949614 -14 11 C-14.66 11 -15.32 11 -16 11 C-16.66 8.69 -17.32 6.38 -18 4 C-17.34 3.67 -16.68 3.34 -16 3 C-15.67 2.01 -15.34 1.02 -15 0 C-10.21109672 -3.24409577 -5.20218328 -1.31317248 0 0 Z M-9 4 C-9 5.32 -9 6.64 -9 8 C-8.01 7.67 -7.02 7.34 -6 7 C-6 6.01 -6 5.02 -6 4 C-6.99 4 -7.98 4 -9 4 Z M-2 8 C-1 10 -1 10 -1 10 Z M-13 12 C-13.33 13.32 -13.66 14.64 -14 16 C-11.71294169 17.14352916 -10.40735238 17.10334439 -7.875 17.0625 C-6.59625 17.041875 -5.3175 17.02125 -4 17 C-4.83333333 14.83333333 -4.83333333 14.83333333 -7 14 C-7.99 14.495 -7.99 14.495 -9 15 C-9 14.34 -9 13.68 -9 13 C-10.32 12.67 -11.64 12.34 -13 12 Z " fill="#050405" transform="translate(179,259)"/>
<path d="M0 0 C1.38671875 2.75 1.38671875 2.75 2.6875 6 C3.12449219 7.0725 3.56148437 8.145 4.01171875 9.25 C5 12 5 12 5 14 C5.66 14.33 6.32 14.66 7 15 C7.82804069 17.48412207 8 19.35220307 8 22 C5.125 22.125 5.125 22.125 2 22 C1.34 21.34 0.68 20.68 0 20 C-2.19704511 19.32348793 -2.19704511 19.32348793 -4.625 18.875 C-5.44226563 18.70742188 -6.25953125 18.53984375 -7.1015625 18.3671875 C-7.72804687 18.24601562 -8.35453125 18.12484375 -9 18 C-9.33 19.32 -9.66 20.64 -10 22 C-12.31 22 -14.62 22 -17 22 C-16.731875 21.38125 -16.46375 20.7625 -16.1875 20.125 C-14.82447102 16.53808163 -13.8011597 12.90420391 -12.78125 9.20703125 C-12 7 -12 7 -10 5 C-10.33 4.34 -10.66 3.68 -11 3 C-7.22292518 -1.18176141 -5.06414757 -3.37609838 0 0 Z M-4 7 C-3 9 -3 9 -3 9 Z M-6 10 C-5 12 -5 12 -5 12 Z M-4 10 C-4 10.66 -4 11.32 -4 12 C-3.34 12 -2.68 12 -2 12 C-2 11.34 -2 10.68 -2 10 C-2.66 10 -3.32 10 -4 10 Z " fill="#040405" transform="translate(151,259)"/>
<path d="M0 0 C2.31 0 4.62 0 7 0 C9.06467828 3.94165854 10.59590101 7.78770302 12 12 C13.03577458 14.36348562 14.10538137 16.7078987 15.1953125 19.046875 C16 21 16 21 16 23 C14.02 23.33 12.04 23.66 10 24 C9.34 22.35 8.68 20.7 8 19 C4.7 19 1.4 19 -2 19 C-2.33 20.32 -2.66 21.64 -3 23 C-4.98 23 -6.96 23 -9 23 C-7.66291365 14.9031993 -3.81118888 7.22119997 0 0 Z M3 8 C4 10 4 10 4 10 Z " fill="#060507" transform="translate(121,215)"/>
<path d="M0 0 C6.6 0 13.2 0 20 0 C20.33 1.32 20.66 2.64 21 4 C19 6 19 6 13 7 C13 11.95 13 16.9 13 22 C11.35 22.66 9.7 23.32 8 24 C6.51171875 22.94921875 6.51171875 22.94921875 5 21 C4.70703125 17.64453125 4.70703125 17.64453125 4.8125 13.8125 C4.85310547 11.90404297 4.85310547 11.90404297 4.89453125 9.95703125 C4.94673828 8.49330078 4.94673828 8.49330078 5 7 C3.35 7 1.7 7 0 7 C-1 4 -1 4 0 0 Z " fill="#030304" transform="translate(257,215)"/>
<path d="M0 0 C2.97 0.495 2.97 0.495 6 1 C4.99441034 4.43576467 3.88548417 7.18608822 2 10.25 C-0.57805326 14.53072276 -1.25324959 19.11664534 -2 24 C-4.31 24 -6.62 24 -9 24 C-8.87625 22.88625 -8.7525 21.7725 -8.625 20.625 C-8.58934465 15.61542275 -10.79761166 12.38429922 -13.4921875 8.296875 C-14.83784305 6.24701629 -15.95397134 4.21392473 -17 2 C-16 1 -16 1 -13.125 0.625 C-10 1 -10 1 -8.125 3.375 C-7 6 -7 6 -7 8 C-6.34 8.33 -5.68 8.66 -5 9 C-3.7018576 7.8509288 -3.7018576 7.8509288 -3 5 C-2.67 4.34 -2.34 3.68 -2 3 C-1.34 3 -0.68 3 0 3 C0 2.01 0 1.02 0 0 Z " fill="#050507" transform="translate(199,257)"/>
<path d="M0 0 C0.33 0 0.66 0 1 0 C0.67 7.92 0.34 15.84 0 24 C3.21012062 23.99666908 3.21012062 23.99666908 6.48509216 23.99327087 C26.60175324 23.9728716 46.71841297 23.95797071 66.83508205 23.94818783 C77.17855169 23.94302438 87.52201374 23.93598076 97.86547852 23.92456055 C106.87741112 23.91461519 115.88933824 23.90814693 124.90127617 23.90591151 C129.67611339 23.90460414 134.45093493 23.9015167 139.22576714 23.89426994 C143.71459913 23.88751207 148.20340889 23.88538256 152.69224548 23.88689232 C154.34469791 23.88661589 155.99715103 23.88460939 157.64959908 23.88079453 C159.89573531 23.8758609 162.14178621 23.87700047 164.38792419 23.87974548 C165.6480152 23.87882369 166.90810621 23.8779019 168.2063818 23.87695217 C171 24 171 24 172 25 C172.04080783 26.99958364 172.04254356 29.00045254 172 31 C171.67 31 171.34 31 171 31 C170.67 29.35 170.34 27.7 170 26 C168.67945035 25.99365209 168.67945035 25.99365209 167.33222294 25.98717594 C145.94309037 25.88401743 124.55399164 25.77540221 103.16491795 25.66066074 C92.82146413 25.60530595 82.47800687 25.55182032 72.13452148 25.50268555 C63.1225672 25.45987128 54.11063856 25.41360036 45.09872383 25.36312145 C40.32390165 25.33649822 35.54908462 25.31164468 30.77423286 25.29092598 C26.28537595 25.27139375 21.79656792 25.24726042 17.30775452 25.21950912 C15.65531232 25.21012054 14.00285937 25.20245181 12.35040092 25.19658089 C10.10423836 25.18835026 7.85819545 25.17408253 5.61207581 25.15821838 C4.3519848 25.15176583 3.09189379 25.14531328 1.7936182 25.1386652 C-1 25 -1 25 -2 24 C-2.25146124 20.54885297 -2.18522419 17.08422797 -2.1875 13.625 C-2.19974609 12.65304688 -2.21199219 11.68109375 -2.22460938 10.6796875 C-2.22654297 9.74640625 -2.22847656 8.813125 -2.23046875 7.8515625 C-2.23457764 6.99385254 -2.23868652 6.13614258 -2.24291992 5.25244141 C-2 3 -2 3 0 0 Z " fill="#315BBB" transform="translate(106,221)"/>
<path d="M0 0 C0.9384375 0.00902344 1.876875 0.01804688 2.84375 0.02734375 C5.10446557 0.05041228 7.36457255 0.08293651 9.625 0.125 C9.295 1.115 8.965 2.105 8.625 3.125 C-2.265 3.125 -13.155 3.125 -24.375 3.125 C-24.375 34.475 -24.375 65.825 -24.375 98.125 C-24.705 98.125 -25.035 98.125 -25.375 98.125 C-25.375 66.445 -25.375 34.765 -25.375 2.125 C-16.54439942 0.86348563 -8.74955128 -0.16580782 0 0 Z " fill="#2C59C0" transform="translate(121.375,195.875)"/>
<path d="M0 0 C2.475 0.99 2.475 0.99 5 2 C5 9.59 5 17.18 5 25 C3.02 25 1.04 25 -1 25 C-1.66 23.35 -2.32 21.7 -3 20 C-2.67 19.67 -2.34 19.34 -2 19 C-1.91368126 17.65732587 -1.89293527 16.31025678 -1.90234375 14.96484375 C-1.90556641 14.15595703 -1.90878906 13.34707031 -1.91210938 12.51367188 C-1.92467773 11.2384668 -1.92467773 11.2384668 -1.9375 9.9375 C-1.94426758 8.65649414 -1.94426758 8.65649414 -1.95117188 7.34960938 C-1.96299627 5.23304337 -1.98093231 3.11651315 -2 1 C-1.34 0.67 -0.68 0.34 0 0 Z " fill="#040404" transform="translate(220,214)"/>
<path d="M0 0 C26.4 0 52.8 0 80 0 C80 0.33 80 0.66 80 1 C78.66362236 1.0154612 78.66362236 1.0154612 77.30024719 1.03123474 C68.89882226 1.12926548 60.49746669 1.23178786 52.09615803 1.33933926 C47.77710273 1.39447269 43.45804056 1.44787715 39.13891602 1.49731445 C34.96971573 1.54509958 30.80059527 1.59744709 26.63149071 1.65294075 C25.04193297 1.67330032 23.4523534 1.69202374 21.86275673 1.70907402 C19.63409169 1.7332602 17.40557568 1.76329454 15.17700195 1.79467773 C13.90903275 1.81022202 12.64106354 1.8257663 11.33467102 1.84178162 C7.69671711 1.93115669 7.69671711 1.93115669 3 3 C3 11.91 3 20.82 3 30 C2.01 30 1.02 30 0 30 C0 20.1 0 10.2 0 0 Z " fill="#2C58B5" transform="translate(104,254)"/>
<path d="M0 0 C3.31248187 -0.02888146 6.62493167 -0.04675799 9.9375 -0.0625 C10.88302734 -0.07087891 11.82855469 -0.07925781 12.80273438 -0.08789062 C14.15141602 -0.09272461 14.15141602 -0.09272461 15.52734375 -0.09765625 C16.77632446 -0.10551147 16.77632446 -0.10551147 18.05053711 -0.11352539 C20 0 20 0 21 1 C21 3.97 21 6.94 21 10 C8.79 10 -3.42 10 -16 10 C-16 9.67 -16 9.34 -16 9 C-14.85785034 8.96241577 -14.85785034 8.96241577 -13.69262695 8.92407227 C-10.23242624 8.80780952 -6.77247746 8.68522022 -3.3125 8.5625 C-2.11431641 8.52318359 -0.91613281 8.48386719 0.31835938 8.44335938 C1.47529297 8.40146484 2.63222656 8.35957031 3.82421875 8.31640625 C4.88729248 8.27974854 5.95036621 8.24309082 7.0456543 8.20532227 C9.78204532 8.0151475 12.32856732 7.6068493 15 7 C15 5.35 15 3.7 15 2 C10.05 2 5.1 2 0 2 C0 1.34 0 0.68 0 0 Z " fill="#265DCF" transform="translate(113,285)"/>
<path d="M0 0 C0.99 0.33 1.98 0.66 3 1 C3.72795155 5.20594226 4.04973814 7.80104745 3 12 C-6.57 12.33 -16.14 12.66 -26 13 C-25.34 11.68 -24.68 10.36 -24 9 C-15.75 9.33 -7.5 9.66 1 10 C0.505 5.05 0.505 5.05 0 0 Z " fill="#305FC9" transform="translate(132,196)"/>
<path d="M0 0 C-2.87185266 2.87185266 -4.87491645 2.25381452 -8.89648438 2.25878906 C-9.60557449 2.2622937 -10.31466461 2.26579834 -11.04524231 2.26940918 C-13.39484375 2.27822921 -15.74414537 2.27237652 -18.09375 2.265625 C-19.72277891 2.26697158 -21.35180743 2.26891204 -22.98083496 2.27142334 C-26.39725567 2.27437497 -29.81357189 2.27007577 -33.22998047 2.26074219 C-37.61517401 2.24934758 -42.00012276 2.25590686 -46.38530731 2.26788712 C-49.74983575 2.27510471 -53.11430589 2.27281826 -56.47883606 2.26763153 C-58.09601368 2.26629475 -59.71319655 2.26794374 -61.33036804 2.27259064 C-63.58822709 2.27765428 -65.84568644 2.26994826 -68.10351562 2.25878906 C-70.03306091 2.25640228 -70.03306091 2.25640228 -72.00158691 2.25396729 C-75 2 -75 2 -77 0 C-67.69881196 -0.15397629 -58.39755482 -0.30215632 -49.09615803 -0.4429636 C-44.77702597 -0.50852949 -40.45794414 -0.57608188 -36.13891602 -0.64819336 C-31.96983727 -0.71772783 -27.80070745 -0.78201901 -23.63149071 -0.84269524 C-22.04188292 -0.86674717 -20.45230243 -0.89267948 -18.86275673 -0.92053413 C-16.63421517 -0.95926324 -14.4056698 -0.99126989 -12.17700195 -1.02172852 C-10.27504814 -1.05170677 -10.27504814 -1.05170677 -8.33467102 -1.08229065 C-5.403768 -1.0099639 -2.83994386 -0.69030389 0 0 Z " fill="#324E8F" transform="translate(189,255)"/>
<path d="M0 0 C-0.33 0.99 -0.66 1.98 -1 3 C-11.89 3 -22.78 3 -34 3 C-34 5.97 -34 8.94 -34 12 C-34.33 12 -34.66 12 -35 12 C-35 8.7 -35 5.4 -35 2 C-23.29459515 -0.20337033 -11.86667354 -0.22082273 0 0 Z " fill="#2851CC" transform="translate(131,196)"/>
<path d="M0 0 C0.33 0 0.66 0 1 0 C1.04898438 0.99902344 1.09796875 1.99804688 1.1484375 3.02734375 C1.22320312 4.31769531 1.29796875 5.60804688 1.375 6.9375 C1.44460937 8.22527344 1.51421875 9.51304687 1.5859375 10.83984375 C1.72257813 11.88269531 1.85921875 12.92554688 2 14 C2.66 14.33 3.32 14.66 4 15 C4 13.35 4 11.7 4 10 C6.1519437 13.22791555 6.20086443 14.28400809 6 18 C3.21176345 19.0326802 2.1322726 19.04509293 -0.75 18.0625 C-1.86375 17.5365625 -1.86375 17.5365625 -3 17 C-2.34 16.67 -1.68 16.34 -1 16 C-1 15.01 -1 14.02 -1 13 C-1.66 12.67 -2.32 12.34 -3 12 C-2.34 12 -1.68 12 -1 12 C-1.01160156 11.30132812 -1.02320313 10.60265625 -1.03515625 9.8828125 C-1.04417969 8.97273437 -1.05320313 8.06265625 -1.0625 7.125 C-1.07410156 6.22007812 -1.08570313 5.31515625 -1.09765625 4.3828125 C-1 2 -1 2 0 0 Z " fill="#0A0A0C" transform="translate(141,220)"/>
<path d="M0 0 C0.33 0 0.66 0 1 0 C1 1.98 1 3.96 1 6 C2.62600941 5.9129995 4.25089678 5.8048219 5.875 5.6875 C6.77992187 5.62949219 7.68484375 5.57148438 8.6171875 5.51171875 C11.36221601 5.2117961 11.36221601 5.2117961 13 2 C15.625 1.8125 15.625 1.8125 18 2 C18 3.65 18 5.3 18 7 C12.06 7.33 6.12 7.66 0 8 C-1.09658936 4.71023192 -0.79953138 3.28696233 0 0 Z " fill="#0F0B12" transform="translate(114,274)"/>
<path d="M0 0 C1.65 0 3.3 0 5 0 C3.68 0.33 2.36 0.66 1 1 C1 7.27 1 13.54 1 20 C1.66 20 2.32 20 3 20 C3 23.3 3 26.6 3 30 C2.01 30 1.02 30 0 30 C0 20.1 0 10.2 0 0 Z " fill="#2D57C6" transform="translate(104,254)"/>
<path d="M0 0 C0.99 0.33 1.98 0.66 3 1 C3.72795155 5.20594226 4.04973814 7.80104745 3 12 C-1.95 12 -6.9 12 -12 12 C-12 11.67 -12 11.34 -12 11 C-7.71 11 -3.42 11 1 11 C0.67 7.37 0.34 3.74 0 0 Z " fill="#3656A3" transform="translate(132,196)"/>
<path d="M0 0 C2.14005895 1.72221103 2.93462864 2.57895219 3.36328125 5.33984375 C3.34652344 6.19707031 3.32976562 7.05429688 3.3125 7.9375 C3.30863281 8.79214844 3.30476563 9.64679688 3.30078125 10.52734375 C2.98780141 13.10028192 2.29573378 14.77505475 1 17 C0 16 0 16 -0.09765625 12.40234375 C-0.0909822 10.91403133 -0.07902183 9.42573568 -0.0625 7.9375 C-0.05798828 7.17888672 -0.05347656 6.42027344 -0.04882812 5.63867188 C-0.0370068 3.75908129 -0.01907078 1.87953101 0 0 Z " fill="#2250CB" transform="translate(104,208)"/>
<path d="M0 0 C-0.66 1.32 -1.32 2.64 -2 4 C-2.66 4 -3.32 4 -4 4 C-6.12153042 5.85633912 -7.41328692 7.61993038 -9 10 C-9.75 7.25 -9.75 7.25 -10 4 C-8.16602021 1.48676843 -6.77758574 0.2973122 -3.875 -0.8125 C-2 -1 -2 -1 0 0 Z " fill="#0A0C15" transform="translate(150,258)"/>
<path d="M0 0 C2.97 0.495 2.97 0.495 6 1 C4.75023244 4.65316671 4.32901247 5.78065836 1 8 C0.67 7.34 0.34 6.68 0 6 C-0.99 6.495 -0.99 6.495 -2 7 C-2 5.68 -2 4.36 -2 3 C-1.34 3 -0.68 3 0 3 C0 2.01 0 1.02 0 0 Z " fill="#0E1118" transform="translate(199,257)"/>
<path d="M0 0 C0.33 0.99 0.66 1.98 1 3 C0.01 3.99 -0.98 4.98 -2 6 C-4.475 5.01 -4.475 5.01 -7 4 C-7 3.34 -7 2.68 -7 2 C-4 0 -4 0 0 0 Z " fill="#09090B" transform="translate(253,233)"/>
<path d="M0 0 C0.33 0 0.66 0 1 0 C1.33 4.29 1.66 8.58 2 13 C0.68 12.34 -0.64 11.68 -2 11 C-1.34 7.37 -0.68 3.74 0 0 Z " fill="#0A0A0D" transform="translate(264,226)"/>
<path d="M0 0 C0.66 0.33 1.32 0.66 2 1 C2 1.66 2 2.32 2 3 C3.9600281 4.63676257 3.9600281 4.63676257 6 6 C4.02 6 2.04 6 0 6 C-0.66 7.32 -1.32 8.64 -2 10 C-2.66 9.67 -3.32 9.34 -4 9 C-2.68 6.03 -1.36 3.06 0 0 Z " fill="#0C0A0D" transform="translate(117,224)"/>
<path d="M0 0 C0.33 0 0.66 0 1 0 C1 1.98 1 3.96 1 6 C4.63 6 8.26 6 12 6 C12 6.33 12 6.66 12 7 C6.06 7.495 6.06 7.495 0 8 C-1.09658936 4.71023192 -0.79953138 3.28696233 0 0 Z " fill="#11131A" transform="translate(114,274)"/>
<path d="M0 0 C3.3 0.66 6.6 1.32 10 2 C10 2.99 10 3.98 10 5 C8.68 4.67 7.36 4.34 6 4 C6 3.67 6 3.34 6 3 C3.69 2.67 1.38 2.34 -1 2 C-0.67 1.34 -0.34 0.68 0 0 Z " fill="#141522" transform="translate(169,257)"/>
<path d="M0 0 C0 0.66 0 1.32 0 2 C-6.625 3.25 -6.625 3.25 -10 1 C-6.56484998 0.37542727 -3.50935186 0 0 0 Z " fill="#0C080F" transform="translate(206,236)"/>
<path d="M0 0 C0.99 0 1.98 0 3 0 C3 2.31 3 4.62 3 7 C2.67 6.34 2.34 5.68 2 5 C1.34 5 0.68 5 0 5 C0 3.35 0 1.7 0 0 Z " fill="#2D61EA" transform="translate(130,287)"/>
<path d="M0 0 C0.99 0.33 1.98 0.66 3 1 C2.01 1.33 1.02 1.66 0 2 C0 1.34 0 0.68 0 0 Z " fill="#000000" transform="translate(174,222)"/>
<path d="" fill="#000000" transform="translate(0,0)"/>
<path d="M0 0 C2 1 2 1 2 1 Z " fill="#000000" transform="translate(122,273)"/>
<path d="M0 0 C2 1 2 1 2 1 Z " fill="#000000" transform="translate(156,269)"/>
<path d="" fill="#000000" transform="translate(0,0)"/>
<path d="M0 0 C2 1 2 1 2 1 Z " fill="#000000" transform="translate(181,262)"/>
<path d="" fill="#000000" transform="translate(0,0)"/>
<path d="" fill="#000000" transform="translate(0,0)"/>
<path d="M0 0 C2 1 2 1 2 1 Z " fill="#000000" transform="translate(199,231)"/>
<path d="" fill="#000000" transform="translate(0,0)"/>
<path d="" fill="#000000" transform="translate(0,0)"/>
<path d="M0 0 C2 1 2 1 2 1 Z " fill="#000000" transform="translate(270,222)"/>
<path d="M0 0 C2 1 2 1 2 1 Z " fill="#000000" transform="translate(189,219)"/>
<path d="" fill="#333333" transform="translate(0,0)"/>
<path d="" fill="#000000" transform="translate(0,0)"/>
<path d="" fill="#404040" transform="translate(0,0)"/>
<path d="" fill="#000000" transform="translate(0,0)"/>
<path d="" fill="#000000" transform="translate(0,0)"/>
<path d="" fill="#000080" transform="translate(0,0)"/>
<path d="" fill="#333333" transform="translate(0,0)"/>
<path d="" fill="#808080" transform="translate(0,0)"/>
<path d="" fill="#000000" transform="translate(0,0)"/>
<path d="" fill="#000000" transform="translate(0,0)"/>
<path d="" fill="#000000" transform="translate(0,0)"/>
<path d="" fill="#000000" transform="translate(0,0)"/>
<path d="" fill="#000000" transform="translate(0,0)"/>
<path d="" fill="#000000" transform="translate(0,0)"/>
<path d="" fill="#000000" transform="translate(0,0)"/>
<path d="" fill="#000000" transform="translate(0,0)"/>
<path d="" fill="#000000" transform="translate(0,0)"/>
<path d="" fill="#000000" transform="translate(0,0)"/>
<path d="" fill="#000000" transform="translate(0,0)"/>
<path d="" fill="#000000" transform="translate(0,0)"/>
<path d="" fill="#000000" transform="translate(0,0)"/>
<path d="" fill="#000000" transform="translate(0,0)"/>
<path d="" fill="#000000" transform="translate(0,0)"/>
<path d="" fill="#000000" transform="translate(0,0)"/>
<path d="" fill="#000000" transform="translate(0,0)"/>
<path d="" fill="#000000" transform="translate(0,0)"/>
<path d="" fill="#000000" transform="translate(0,0)"/>
<path d="" fill="#000000" transform="translate(0,0)"/>
<path d="" fill="#000000" transform="translate(0,0)"/>
<path d="" fill="#000000" transform="translate(0,0)"/>
<path d="" fill="#000000" transform="translate(0,0)"/>
<path d="" fill="#000000" transform="translate(0,0)"/>
<path d="" fill="#000000" transform="translate(0,0)"/>
<path d="" fill="#242424" transform="translate(0,0)"/>
<path d="" fill="#1C1C1C" transform="translate(0,0)"/>
<path d="" fill="#000000" transform="translate(0,0)"/>
<path d="" fill="#000000" transform="translate(0,0)"/>
<path d="" fill="#000000" transform="translate(0,0)"/>
<path d="" fill="#333333" transform="translate(0,0)"/>
<path d="" fill="#555555" transform="translate(0,0)"/>
<path d="" fill="#000000" transform="translate(0,0)"/>
<path d="" fill="#404040" transform="translate(0,0)"/>
<path d="" fill="#2A2A55" transform="translate(0,0)"/>
<path d="" fill="#000040" transform="translate(0,0)"/>
<path d="" fill="#000000" transform="translate(0,0)"/>
<path d="" fill="#000000" transform="translate(0,0)"/>
<path d="" fill="#000000" transform="translate(0,0)"/>
<path d="" fill="#000000" transform="translate(0,0)"/>
<path d="" fill="#000000" transform="translate(0,0)"/>
<path d="" fill="#000000" transform="translate(0,0)"/>
<path d="" fill="#000000" transform="translate(0,0)"/>
<path d="" fill="#000000" transform="translate(0,0)"/>
<path d="" fill="#000000" transform="translate(0,0)"/>
<path d="" fill="#242424" transform="translate(0,0)"/>
<path d="" fill="#000000" transform="translate(0,0)"/>
<path d="" fill="#000000" transform="translate(0,0)"/>
<path d="" fill="#000000" transform="translate(0,0)"/>
<path d="" fill="#000000" transform="translate(0,0)"/>
<path d="" fill="#000000" transform="translate(0,0)"/>
<path d="" fill="#000000" transform="translate(0,0)"/>
<path d="" fill="#000000" transform="translate(0,0)"/>
<path d="" fill="#000000" transform="translate(0,0)"/>
<path d="" fill="#000000" transform="translate(0,0)"/>
<path d="" fill="#000000" transform="translate(0,0)"/>
<path d="" fill="#000000" transform="translate(0,0)"/>
<path d="" fill="#000000" transform="translate(0,0)"/>
<path d="" fill="#000000" transform="translate(0,0)"/>
<path d="" fill="#000000" transform="translate(0,0)"/>
<path d="" fill="#000000" transform="translate(0,0)"/>
<path d="" fill="#000000" transform="translate(0,0)"/>
<path d="" fill="#000000" transform="translate(0,0)"/>
<path d="" fill="#000000" transform="translate(0,0)"/>
<path d="" fill="#000000" transform="translate(0,0)"/>
<path d="" fill="#000000" transform="translate(0,0)"/>
<path d="" fill="#000000" transform="translate(0,0)"/>
<path d="" fill="#000000" transform="translate(0,0)"/>
<path d="" fill="#000000" transform="translate(0,0)"/>
<path d="" fill="#000000" transform="translate(0,0)"/>
<path d="" fill="#000000" transform="translate(0,0)"/>
<path d="" fill="#000000" transform="translate(0,0)"/>
<path d="" fill="#000000" transform="translate(0,0)"/>
<path d="" fill="#000000" transform="translate(0,0)"/>
<path d="" fill="#000000" transform="translate(0,0)"/>
<path d="" fill="#000000" transform="translate(0,0)"/>
<path d="" fill="#000000" transform="translate(0,0)"/>
<path d="" fill="#000000" transform="translate(0,0)"/>
<path d="" fill="#000000" transform="translate(0,0)"/>
<path d="" fill="#000000" transform="translate(0,0)"/>
<path d="" fill="#000000" transform="translate(0,0)"/>
<path d="" fill="#000000" transform="translate(0,0)"/>
<path d="" fill="#000000" transform="translate(0,0)"/>
<path d="" fill="#000000" transform="translate(0,0)"/>
<path d="" fill="#000000" transform="translate(0,0)"/>
<path d="" fill="#000000" transform="translate(0,0)"/>
<path d="" fill="#000000" transform="translate(0,0)"/>
<path d="" fill="#000000" transform="translate(0,0)"/>
<path d="" fill="#000000" transform="translate(0,0)"/>
<path d="" fill="#000000" transform="translate(0,0)"/>
<path d="" fill="#000000" transform="translate(0,0)"/>
<path d="" fill="#000000" transform="translate(0,0)"/>
<path d="" fill="#000000" transform="translate(0,0)"/>
<path d="" fill="#000000" transform="translate(0,0)"/>
<path d="" fill="#000000" transform="translate(0,0)"/>
<path d="" fill="#000000" transform="translate(0,0)"/>
<path d="" fill="#000000" transform="translate(0,0)"/>
<path d="" fill="#000000" transform="translate(0,0)"/>
<path d="" fill="#242424" transform="translate(0,0)"/>
</svg>
